<mxfile host="app.diagrams.net" agent="Mozilla/5.0 (Windows NT 10.0; Win64; x64) AppleWebKit/537.36 (KHTML, like Gecko) Chrome/138.0.0.0 Safari/537.36" version="28.0.7">
  <diagram name="Page-1" id="LX3LJ97958zwZMV2R7DM">
    <mxGraphModel dx="1702" dy="996" grid="1" gridSize="10" guides="1" tooltips="1" connect="1" arrows="1" fold="1" page="1" pageScale="1" pageWidth="850" pageHeight="1100" math="0" shadow="0">
      <root>
        <mxCell id="0" />
        <mxCell id="1" parent="0" />
        <mxCell id="Yo5h2dkhZjBuRe4eT5Py-12" value="" style="edgeStyle=orthogonalEdgeStyle;rounded=0;orthogonalLoop=1;jettySize=auto;html=1;" edge="1" parent="1" source="Yo5h2dkhZjBuRe4eT5Py-6" target="Yo5h2dkhZjBuRe4eT5Py-11">
          <mxGeometry relative="1" as="geometry" />
        </mxCell>
        <mxCell id="Yo5h2dkhZjBuRe4eT5Py-6" value="Develop" style="ellipse;whiteSpace=wrap;html=1;aspect=fixed;" vertex="1" parent="1">
          <mxGeometry x="360" y="180" width="80" height="80" as="geometry" />
        </mxCell>
        <mxCell id="Yo5h2dkhZjBuRe4eT5Py-14" value="" style="edgeStyle=orthogonalEdgeStyle;rounded=0;orthogonalLoop=1;jettySize=auto;html=1;" edge="1" parent="1" source="Yo5h2dkhZjBuRe4eT5Py-11" target="Yo5h2dkhZjBuRe4eT5Py-13">
          <mxGeometry relative="1" as="geometry" />
        </mxCell>
        <mxCell id="Yo5h2dkhZjBuRe4eT5Py-11" value="Build" style="ellipse;whiteSpace=wrap;html=1;aspect=fixed;fontStyle=0" vertex="1" parent="1">
          <mxGeometry x="360" y="290" width="80" height="80" as="geometry" />
        </mxCell>
        <mxCell id="Yo5h2dkhZjBuRe4eT5Py-16" value="" style="edgeStyle=orthogonalEdgeStyle;rounded=0;orthogonalLoop=1;jettySize=auto;html=1;" edge="1" parent="1" source="Yo5h2dkhZjBuRe4eT5Py-13" target="Yo5h2dkhZjBuRe4eT5Py-15">
          <mxGeometry relative="1" as="geometry" />
        </mxCell>
        <mxCell id="Yo5h2dkhZjBuRe4eT5Py-13" value="Test" style="ellipse;whiteSpace=wrap;html=1;aspect=fixed;" vertex="1" parent="1">
          <mxGeometry x="360" y="400" width="80" height="80" as="geometry" />
        </mxCell>
        <mxCell id="Yo5h2dkhZjBuRe4eT5Py-20" value="" style="edgeStyle=orthogonalEdgeStyle;rounded=0;orthogonalLoop=1;jettySize=auto;html=1;" edge="1" parent="1" source="Yo5h2dkhZjBuRe4eT5Py-15" target="Yo5h2dkhZjBuRe4eT5Py-19">
          <mxGeometry relative="1" as="geometry" />
        </mxCell>
        <mxCell id="Yo5h2dkhZjBuRe4eT5Py-15" value="Release" style="ellipse;whiteSpace=wrap;html=1;aspect=fixed;" vertex="1" parent="1">
          <mxGeometry x="360" y="510" width="80" height="80" as="geometry" />
        </mxCell>
        <mxCell id="Yo5h2dkhZjBuRe4eT5Py-18" value="" style="edgeStyle=orthogonalEdgeStyle;rounded=0;orthogonalLoop=1;jettySize=auto;html=1;" edge="1" parent="1" source="Yo5h2dkhZjBuRe4eT5Py-17" target="Yo5h2dkhZjBuRe4eT5Py-6">
          <mxGeometry relative="1" as="geometry" />
        </mxCell>
        <mxCell id="Yo5h2dkhZjBuRe4eT5Py-17" value="Plan" style="ellipse;whiteSpace=wrap;html=1;aspect=fixed;strokeColor=light-dark(#000000,#FFFFFF);" vertex="1" parent="1">
          <mxGeometry x="360" y="60" width="80" height="80" as="geometry" />
        </mxCell>
        <mxCell id="Yo5h2dkhZjBuRe4eT5Py-22" value="" style="edgeStyle=orthogonalEdgeStyle;rounded=0;orthogonalLoop=1;jettySize=auto;html=1;" edge="1" parent="1" source="Yo5h2dkhZjBuRe4eT5Py-19" target="Yo5h2dkhZjBuRe4eT5Py-21">
          <mxGeometry relative="1" as="geometry" />
        </mxCell>
        <mxCell id="Yo5h2dkhZjBuRe4eT5Py-19" value="Deploy" style="ellipse;whiteSpace=wrap;html=1;aspect=fixed;" vertex="1" parent="1">
          <mxGeometry x="360" y="630" width="80" height="80" as="geometry" />
        </mxCell>
        <mxCell id="Yo5h2dkhZjBuRe4eT5Py-24" value="" style="edgeStyle=orthogonalEdgeStyle;rounded=0;orthogonalLoop=1;jettySize=auto;html=1;" edge="1" parent="1" source="Yo5h2dkhZjBuRe4eT5Py-21" target="Yo5h2dkhZjBuRe4eT5Py-23">
          <mxGeometry relative="1" as="geometry" />
        </mxCell>
        <mxCell id="Yo5h2dkhZjBuRe4eT5Py-21" value="Operate" style="ellipse;whiteSpace=wrap;html=1;aspect=fixed;" vertex="1" parent="1">
          <mxGeometry x="360" y="750" width="80" height="80" as="geometry" />
        </mxCell>
        <mxCell id="Yo5h2dkhZjBuRe4eT5Py-23" value="Monitor" style="ellipse;whiteSpace=wrap;html=1;aspect=fixed;" vertex="1" parent="1">
          <mxGeometry x="360" y="870" width="80" height="80" as="geometry" />
        </mxCell>
      </root>
    </mxGraphModel>
  </diagram>
</mxfile>
